<?xml version="1.0" encoding="UTF-8" standalone="no"?>
<!-- Created with Inkscape (http://www.inkscape.org/) -->

<svg
   xmlns:dc="http://purl.org/dc/elements/1.1/"
   xmlns:cc="http://creativecommons.org/ns#"
   xmlns:rdf="http://www.w3.org/1999/02/22-rdf-syntax-ns#"
   xmlns:svg="http://www.w3.org/2000/svg"
   xmlns="http://www.w3.org/2000/svg"
   xmlns:sodipodi="http://sodipodi.sourceforge.net/DTD/sodipodi-0.dtd"
   xmlns:inkscape="http://www.inkscape.org/namespaces/inkscape"
   width="258.5582"
   height="131.83429"
   viewBox="0 0 258.55821 131.83429"
   id="svg4877"
   version="1.1"
   inkscape:version="0.91 r13725"
   sodipodi:docname="logo.svg">
  <defs
     id="defs4879" />
  <sodipodi:namedview
     id="base"
     pagecolor="#ffffff"
     bordercolor="#666666"
     borderopacity="1.0"
     inkscape:pageopacity="0.0"
     inkscape:pageshadow="2"
     inkscape:zoom="2.8"
     inkscape:cx="122.9588"
     inkscape:cy="76.504719"
     inkscape:document-units="px"
     inkscape:current-layer="layer1"
     showgrid="false"
     fit-margin-top="2"
     fit-margin-left="2"
     fit-margin-right="2"
     fit-margin-bottom="2"
     inkscape:window-width="1440"
     inkscape:window-height="855"
     inkscape:window-x="0"
     inkscape:window-y="1"
     inkscape:window-maximized="1"
     units="px" />
  <metadata
     id="metadata4882">
    <rdf:RDF>
      <cc:Work
         rdf:about="">
        <dc:format>image/svg+xml</dc:format>
        <dc:type
           rdf:resource="http://purl.org/dc/dcmitype/StillImage" />
        <dc:title></dc:title>
      </cc:Work>
    </rdf:RDF>
  </metadata>
  <g
     inkscape:label="Ebene 1"
     inkscape:groupmode="layer"
     id="layer1"
     transform="translate(-68.900711,-355.68232)">
    <rect
       style="opacity:1;fill:#e7f0ff;fill-opacity:1;stroke:#4e8bd8;stroke-width:0.40000001;stroke-miterlimit:4;stroke-dasharray:none;stroke-opacity:1"
       id="rect5481"
       width="54.043159"
       height="101.52033"
       x="71.215759"
       y="357.88232" />
    <rect
       y="358.14758"
       x="138.15109"
       height="27.248671"
       width="54.522785"
       id="rect5483"
       style="opacity:1;fill:#e7f0ff;fill-opacity:1;stroke:#4e8bd8;stroke-width:0.40000001;stroke-miterlimit:4;stroke-dasharray:none;stroke-opacity:1" />
    <rect
       style="opacity:1;fill:#e7f0ff;fill-opacity:1;stroke:#4e8bd8;stroke-width:0.40000001;stroke-miterlimit:4;stroke-dasharray:none;stroke-opacity:1"
       id="rect5485"
       width="54.230236"
       height="66.857147"
       x="138.80246"
       y="392.17456" />
    <rect
       y="438.92679"
       x="204.94293"
       height="20.748692"
       width="54.588799"
       id="rect5487"
       style="opacity:1;fill:#e7f0ff;fill-opacity:1;stroke:#4e8bd8;stroke-width:0.40000001;stroke-miterlimit:4;stroke-dasharray:none;stroke-opacity:1" />
    <rect
       style="opacity:1;fill:#e7f0ff;fill-opacity:1;stroke:#4e8bd8;stroke-width:0.45436016;stroke-miterlimit:4;stroke-dasharray:none;stroke-opacity:1"
       id="rect5489"
       width="54.588799"
       height="20.748692"
       x="204.94293"
       y="408.92679" />
    <rect
       y="358.99954"
       x="205.01567"
       height="36.260567"
       width="54.44331"
       id="rect5491"
       style="opacity:1;fill:#e7f0ff;fill-opacity:1;stroke:#4e8bd8;stroke-width:0.40000001;stroke-miterlimit:4;stroke-dasharray:none;stroke-opacity:1" />
    <rect
       y="357.88232"
       x="271.21576"
       height="101.52033"
       width="54.043159"
       id="rect5493"
       style="opacity:1;fill:#e7f0ff;fill-opacity:1;stroke:#4e8bd8;stroke-width:0.40000001;stroke-miterlimit:4;stroke-dasharray:none;stroke-opacity:1" />
    <g
       style="font-style:normal;font-variant:normal;font-weight:normal;font-stretch:normal;font-size:40px;line-height:125%;font-family:'Apple Symbols';-inkscape-font-specification:'Apple Symbols, Normal';text-align:start;letter-spacing:0px;word-spacing:0px;writing-mode:lr-tb;text-anchor:start;fill:#0f54b3;fill-opacity:1;stroke:none;stroke-width:1px;stroke-linecap:butt;stroke-linejoin:miter;stroke-opacity:1"
       id="text5471"
       transform="matrix(0.91811785,0,0,0.91811785,14.986681,94.963467)">
      <path
         d="m 63.713211,424.74002 -2.8125,0 0,-21.52344 2.8125,0 0,21.52344 z"
         style="font-style:normal;font-variant:normal;font-weight:normal;font-stretch:normal;font-size:40px;line-height:125%;font-family:'Apple Symbols';-inkscape-font-specification:'Apple Symbols, Normal';text-align:start;writing-mode:lr-tb;text-anchor:start;fill:#0f54b3;fill-opacity:1"
         id="path5582"
         inkscape:connector-curvature="0" />
      <path
         d="m 70.353836,424.74002 -2.578125,0 0,-21.52344 2.773438,0 9.84375,15.29297 0.898437,1.71875 -0.05859,-1.69922 0,-15.3125 2.578125,0 0,21.52344 -2.734375,0 -9.863281,-15.37109 -0.898437,-1.71875 0.03906,1.71875 0,15.37109 z"
         style="font-style:normal;font-variant:normal;font-weight:normal;font-stretch:normal;font-size:40px;line-height:125%;font-family:'Apple Symbols';-inkscape-font-specification:'Apple Symbols, Normal';text-align:start;writing-mode:lr-tb;text-anchor:start;fill:#0f54b3;fill-opacity:1"
         id="path5584"
         inkscape:connector-curvature="0" />
      <path
         d="m 93.576492,424.74002 0,-19.35547 -7.324218,0 0,-2.16797 17.324216,0 0,2.16797 -7.207029,0 0,19.35547 -2.792969,0 z"
         style="font-style:normal;font-variant:normal;font-weight:normal;font-stretch:normal;font-size:40px;line-height:125%;font-family:'Apple Symbols';-inkscape-font-specification:'Apple Symbols, Normal';text-align:start;writing-mode:lr-tb;text-anchor:start;fill:#0f54b3;fill-opacity:1"
         id="path5586"
         inkscape:connector-curvature="0" />
      <path
         d="m 106.05696,424.74002 0,-21.52344 12.16797,0 0,2.36328 -9.35547,0 0,6.79688 8.16406,0 0,2.14844 -8.16406,0 0,7.85156 10.09766,0 0,2.36328 -12.91016,0 z"
         style="font-style:normal;font-variant:normal;font-weight:normal;font-stretch:normal;font-size:40px;line-height:125%;font-family:'Apple Symbols';-inkscape-font-specification:'Apple Symbols, Normal';text-align:start;writing-mode:lr-tb;text-anchor:start;fill:#0f54b3;fill-opacity:1"
         id="path5588"
         inkscape:connector-curvature="0" />
      <path
         d="m 125.27571,424.74002 -2.8125,0 0,-21.52344 6.66016,0 q 2.46093,0 3.6914,0.70313 1.23047,0.70312 1.95313,2.05078 0.72265,1.34766 0.72265,2.91016 0,1.25 -0.48828,2.42187 -0.48828,1.15234 -1.36718,2.08984 -0.87891,0.9375 -2.71485,1.66016 0.6836,0.39063 1.03516,0.74219 0.35156,0.35156 0.83984,1.13281 0.50781,0.76172 0.87891,1.44531 l 3.41797,6.36719 -3.20313,0 -2.96875,-5.66406 q -1.09375,-2.05078 -2.8125,-3.59375 l -2.83203,0 0,9.25781 z m 0,-11.40625 2.73438,0 q 1.71875,0 2.61718,-0.52734 0.89844,-0.52735 1.42578,-1.54297 0.52735,-1.03516 0.52735,-2.1875 0,-1.01563 -0.42969,-1.81641 -0.41016,-0.80078 -1.21094,-1.32812 -0.80078,-0.54688 -2.73437,-0.54688 l -2.92969,0 0,7.94922 z"
         style="font-style:normal;font-variant:normal;font-weight:normal;font-stretch:normal;font-size:40px;line-height:125%;font-family:'Apple Symbols';-inkscape-font-specification:'Apple Symbols, Normal';text-align:start;writing-mode:lr-tb;text-anchor:start;fill:#0f54b3;fill-opacity:1"
         id="path5590"
         inkscape:connector-curvature="0" />
      <path
         d="m 139.72884,424.74002 0,-21.52344 12.16796,0 0,2.36328 -9.35546,0 0,7.42188 8.16406,0 0,2.16797 -8.16406,0 0,9.57031 -2.8125,0 z"
         style="font-style:normal;font-variant:normal;font-weight:normal;font-stretch:normal;font-size:40px;line-height:125%;font-family:'Apple Symbols';-inkscape-font-specification:'Apple Symbols, Normal';text-align:start;writing-mode:lr-tb;text-anchor:start;fill:#0f54b3;fill-opacity:1"
         id="path5592"
         inkscape:connector-curvature="0" />
      <path
         d="m 156.42805,424.74002 -2.59765,0 8.82812,-21.52344 2.8125,0 8.14453,21.52344 -3.02734,0 -2.22656,-5.91797 -9.49219,0 -2.44141,5.91797 z m 3.28125,-8.06641 7.8125,0 -3.76953,-10 -4.04297,10 z"
         style="font-style:normal;font-variant:normal;font-weight:normal;font-stretch:normal;font-size:40px;line-height:125%;font-family:'Apple Symbols';-inkscape-font-specification:'Apple Symbols, Normal';text-align:start;writing-mode:lr-tb;text-anchor:start;fill:#0f54b3;fill-opacity:1"
         id="path5594"
         inkscape:connector-curvature="0" />
      <path
         d="m 188.86946,420.11111 2.57813,0 0,0.13672 q 0,1.26953 -0.87891,2.59766 -0.87891,1.30859 -2.38281,1.91406 -1.50391,0.625 -3.55469,0.625 -4.10156,0 -6.71875,-2.85156 -2.59766,-2.85156 -2.59766,-8.55469 0,-5.66406 2.59766,-8.53515 2.59766,-2.8711 6.73828,-2.8711 2.03125,0 3.53516,0.625 1.5039,0.60547 2.38281,1.95313 0.87891,1.32812 0.87891,2.55859 l 0,0.13672 -2.57813,0 0,-0.13672 q 0,-0.78125 -0.50781,-1.50391 -0.48828,-0.74218 -1.40625,-1.11328 -0.91797,-0.37109 -2.20703,-0.37109 -3.30078,0 -4.92188,2.61719 -1.62109,2.59765 -1.62109,6.64062 0,4.08203 1.62109,6.67969 1.64063,2.57812 4.90235,2.57812 2.24609,0 3.18359,-0.91796 0.95703,-0.9375 0.95703,-2.07032 l 0,-0.13672 z"
         style="font-style:normal;font-variant:normal;font-weight:normal;font-stretch:normal;font-size:40px;line-height:125%;font-family:'Apple Symbols';-inkscape-font-specification:'Apple Symbols, Normal';text-align:start;writing-mode:lr-tb;text-anchor:start;fill:#0f54b3;fill-opacity:1"
         id="path5596"
         inkscape:connector-curvature="0" />
      <path
         d="m 194.57259,424.74002 0,-21.52344 12.16796,0 0,2.36328 -9.35546,0 0,6.79688 8.16406,0 0,2.14844 -8.16406,0 0,7.85156 10.09765,0 0,2.36328 -12.91015,0 z"
         style="font-style:normal;font-variant:normal;font-weight:normal;font-stretch:normal;font-size:40px;line-height:125%;font-family:'Apple Symbols';-inkscape-font-specification:'Apple Symbols, Normal';text-align:start;writing-mode:lr-tb;text-anchor:start;fill:#0f54b3;fill-opacity:1"
         id="path5598"
         inkscape:connector-curvature="0" />
      <path
         d="m 234.02571,413.43143 q 2.55859,0.625 3.69141,2.10937 1.15234,1.46485 1.15234,3.32031 0,1.54297 -0.80078,2.91016 -0.78125,1.34766 -2.24609,2.16797 -1.44532,0.80078 -5.01954,0.80078 l -6.46484,0 0,-21.52344 5.72266,0 q 3.90625,0 5.23437,0.56641 1.34766,0.56641 2.03125,1.66016 0.6836,1.09375 0.6836,2.42187 0,1.48438 -0.85938,2.94922 -0.85937,1.46484 -3.125,2.61719 z m -6.875,-0.85938 2.69531,0 q 2.07032,0 3.10547,-0.54687 1.03516,-0.54688 1.64063,-1.58203 0.625,-1.03516 0.625,-2.12891 0,-1.21094 -0.97657,-2.07031 -0.95703,-0.85938 -3.45703,-0.85938 l -3.63281,0 0,7.1875 z m 0,10.01953 3.94531,0 q 2.8125,0 3.82813,-1.03515 1.03515,-1.05469 1.03515,-2.48047 0,-1.15235 -0.66406,-2.12891 -0.66406,-0.97656 -1.97265,-1.58203 -1.3086,-0.625 -4.10157,-0.625 l -2.07031,0 0,7.85156 z"
         style="font-style:normal;font-variant:normal;font-weight:normal;font-stretch:normal;font-size:40px;line-height:125%;font-family:'Apple Symbols';-inkscape-font-specification:'Apple Symbols, Normal';text-align:start;writing-mode:lr-tb;text-anchor:start;fill:#0f54b3;fill-opacity:1"
         id="path5600"
         inkscape:connector-curvature="0" />
      <path
         d="m 242.07259,403.21658 2.79296,0 0,13.84766 q 0,3.00781 0.58594,4.04297 0.60547,1.03515 1.85547,1.58203 1.25,0.54687 2.77344,0.54687 1.48437,0 2.63672,-0.54687 1.15234,-0.54688 1.69922,-1.71875 0.5664,-1.17188 0.5664,-4.90234 l 0,-12.85157 2.57813,0 0,13.57422 q 0,3.76953 -0.87891,5.29297 -0.85937,1.52344 -2.5,2.42188 -1.62109,0.8789 -4.10156,0.8789 -2.30469,0 -4.21875,-0.70312 -1.91406,-0.70313 -2.85156,-2.1875 -0.9375,-1.50391 -0.9375,-5.0586 l 0,-14.21875 z"
         style="font-style:normal;font-variant:normal;font-weight:normal;font-stretch:normal;font-size:40px;line-height:125%;font-family:'Apple Symbols';-inkscape-font-specification:'Apple Symbols, Normal';text-align:start;writing-mode:lr-tb;text-anchor:start;fill:#0f54b3;fill-opacity:1"
         id="path5602"
         inkscape:connector-curvature="0" />
      <path
         d="m 264.10384,424.74002 -2.8125,0 0,-21.52344 2.8125,0 0,21.52344 z"
         style="font-style:normal;font-variant:normal;font-weight:normal;font-stretch:normal;font-size:40px;line-height:125%;font-family:'Apple Symbols';-inkscape-font-specification:'Apple Symbols, Normal';text-align:start;writing-mode:lr-tb;text-anchor:start;fill:#0f54b3;fill-opacity:1"
         id="path5604"
         inkscape:connector-curvature="0" />
      <path
         d="m 268.16634,424.74002 0,-21.52344 2.8125,0 0,19.16016 11.28906,0 0,2.36328 -14.10156,0 z"
         style="font-style:normal;font-variant:normal;font-weight:normal;font-stretch:normal;font-size:40px;line-height:125%;font-family:'Apple Symbols';-inkscape-font-specification:'Apple Symbols, Normal';text-align:start;writing-mode:lr-tb;text-anchor:start;fill:#0f54b3;fill-opacity:1"
         id="path5606"
         inkscape:connector-curvature="0" />
      <path
         d="m 284.72884,424.74002 0,-21.52344 5.95703,0 q 4.33593,0 6.34765,1.19141 2.01172,1.17187 3.14453,3.59375 1.13282,2.42187 1.13282,5.89844 0,3.26172 -1.03516,5.66406 -1.01562,2.38281 -3.08594,3.78906 -2.05078,1.38672 -6.11328,1.38672 l -6.34765,0 z m 2.8125,-2.36328 3.30078,0 q 2.94922,0 4.45312,-0.85938 1.50391,-0.8789 2.30469,-2.73437 0.80078,-1.85547 0.80078,-4.64844 0,-2.8125 -0.74219,-4.82422 -0.72265,-2.01172 -2.20703,-2.96875 -1.48437,-0.95703 -4.6875,-0.95703 l -3.22265,0 0,16.99219 z"
         style="font-style:normal;font-variant:normal;font-weight:normal;font-stretch:normal;font-size:40px;line-height:125%;font-family:'Apple Symbols';-inkscape-font-specification:'Apple Symbols, Normal';text-align:start;writing-mode:lr-tb;text-anchor:start;fill:#0f54b3;fill-opacity:1"
         id="path5608"
         inkscape:connector-curvature="0" />
      <path
         d="m 304.65071,424.74002 0,-21.52344 12.16797,0 0,2.36328 -9.35547,0 0,6.79688 8.16406,0 0,2.14844 -8.16406,0 0,7.85156 10.09766,0 0,2.36328 -12.91016,0 z"
         style="font-style:normal;font-variant:normal;font-weight:normal;font-stretch:normal;font-size:40px;line-height:125%;font-family:'Apple Symbols';-inkscape-font-specification:'Apple Symbols, Normal';text-align:start;writing-mode:lr-tb;text-anchor:start;fill:#0f54b3;fill-opacity:1"
         id="path5610"
         inkscape:connector-curvature="0" />
      <path
         d="m 323.86946,424.74002 -2.8125,0 0,-21.52344 6.66016,0 q 2.46093,0 3.6914,0.70313 1.23047,0.70312 1.95313,2.05078 0.72265,1.34766 0.72265,2.91016 0,1.25 -0.48828,2.42187 -0.48828,1.15234 -1.36718,2.08984 -0.87891,0.9375 -2.71485,1.66016 0.6836,0.39063 1.03516,0.74219 0.35156,0.35156 0.83984,1.13281 0.50781,0.76172 0.87891,1.44531 l 3.41797,6.36719 -3.20313,0 -2.96875,-5.66406 q -1.09375,-2.05078 -2.8125,-3.59375 l -2.83203,0 0,9.25781 z m 0,-11.40625 2.73438,0 q 1.71875,0 2.61718,-0.52734 0.89844,-0.52735 1.42578,-1.54297 0.52735,-1.03516 0.52735,-2.1875 0,-1.01563 -0.42969,-1.81641 -0.41016,-0.80078 -1.21094,-1.32812 -0.80078,-0.54688 -2.73437,-0.54688 l -2.92969,0 0,7.94922 z"
         style="font-style:normal;font-variant:normal;font-weight:normal;font-stretch:normal;font-size:40px;line-height:125%;font-family:'Apple Symbols';-inkscape-font-specification:'Apple Symbols, Normal';text-align:start;writing-mode:lr-tb;text-anchor:start;fill:#0f54b3;fill-opacity:1"
         id="path5612"
         inkscape:connector-curvature="0" />
    </g>
  </g>
</svg>
