<svg xmlns="http://www.w3.org/2000/svg" width="258.558" height="131.834"><path fill="#e7f0ff" stroke="#4e8bd8" stroke-width=".4" d="M2.315 2.2h54.043v101.52H2.315zM69.25 2.466h54.523v27.249H69.25zM69.901 36.493h54.23v66.857h-54.23zM136.042 83.245h54.59v20.749h-54.59z"/><path fill="#e7f0ff" stroke="#4e8bd8" stroke-width=".454" d="M136.042 53.245h54.59v20.749h-54.59z"/><path fill="#e7f0ff" stroke="#4e8bd8" stroke-width=".4" d="M136.115 3.318h54.443v36.26h-54.443zM202.315 2.2h54.043v101.52h-54.043z"/><g style="line-height:125%;-inkscape-font-specification:'Apple Symbols, Normal';text-align:start" font-weight="400" font-size="40" font-family="Apple Symbols" letter-spacing="0" word-spacing="0" fill="#0f54b3"><path d="M4.582 129.243H2V109.48h2.582v19.762zM10.68 129.243H8.311V109.48h2.546l9.038 14.041.825 1.578-.054-1.56v-14.059h2.367v19.762h-2.51l-9.056-14.113-.825-1.578.036 1.578v14.113zM32 129.243v-17.771h-6.724v-1.99H41.18v1.99h-6.617v17.77H32zM43.459 129.243V109.48H54.63v2.17h-8.589v6.24h7.496v1.973H46.04v7.209h9.27v2.17H43.46zM61.104 129.243h-2.582V109.48h6.114q2.26 0 3.39.646 1.13.646 1.793 1.883t.663 2.672q0 1.147-.448 2.223-.448 1.058-1.255 1.92-.807.86-2.493 1.523.628.359.95.682.323.322.772 1.04.466.7.807 1.327l3.138 5.846h-2.941l-2.726-5.2q-1.004-1.884-2.582-3.3h-2.6v8.5zm0-10.473h2.51q1.578 0 2.403-.484t1.31-1.417q.483-.95.483-2.008 0-.932-.394-1.668-.377-.735-1.112-1.219-.735-.502-2.51-.502h-2.69v7.298zM74.374 129.243V109.48h11.171v2.17h-8.59v6.814h7.496v1.99h-7.495v8.788h-2.582zM89.705 129.243H87.32l8.106-19.762h2.582l7.478 19.762h-2.78l-2.044-5.434h-8.715l-2.242 5.434zm3.013-7.406h7.173l-3.461-9.182-3.712 9.182zM119.49 124.993h2.367v.125q0 1.166-.807 2.385-.806 1.202-2.187 1.757-1.381.574-3.264.574-3.766 0-6.168-2.618-2.385-2.618-2.385-7.854 0-5.2 2.385-7.836t6.186-2.636q1.865 0 3.246.574 1.38.555 2.187 1.793.807 1.22.807 2.349v.125h-2.367v-.125q0-.717-.466-1.38-.448-.682-1.29-1.023-.844-.34-2.027-.34-3.03 0-4.52 2.402-1.487 2.385-1.487 6.097 0 3.748 1.488 6.133 1.506 2.367 4.5 2.367 2.063 0 2.924-.843.878-.86.878-1.9v-.126zM124.727 129.243V109.48h11.171v2.17h-8.59v6.24h7.496v1.973h-7.495v7.209h9.27v2.17h-11.852zM160.95 118.86q2.348.574 3.388 1.937 1.058 1.344 1.058 3.048 0 1.417-.735 2.672-.717 1.237-2.062 1.99-1.327.736-4.609.736h-5.935V109.48h5.254q3.586 0 4.806.52 1.237.52 1.865 1.525.627 1.004.627 2.223 0 1.363-.789 2.708-.789 1.345-2.869 2.403zm-6.313-.79h2.475q1.9 0 2.85-.501.951-.502 1.507-1.453.574-.95.574-1.954 0-1.112-.897-1.901-.878-.79-3.174-.79h-3.335v6.6zm0 9.2h3.622q2.583 0 3.515-.95.95-.969.95-2.278 0-1.058-.61-1.954-.609-.897-1.81-1.453-1.202-.574-3.766-.574h-1.9v7.209zM168.337 109.481h2.564v12.714q0 2.762.538 3.712.556.95 1.704 1.453 1.148.502 2.546.502 1.363 0 2.421-.502 1.058-.502 1.56-1.578.52-1.076.52-4.501v-11.8h2.367v12.463q0 3.461-.807 4.86-.789 1.398-2.295 2.223-1.488.807-3.766.807-2.116 0-3.873-.645-1.757-.646-2.618-2.009-.86-1.38-.86-4.644v-13.055zM188.564 129.243h-2.582V109.48h2.582v19.762zM192.294 129.243V109.48h2.582v17.592h10.365v2.17h-12.947zM207.5 129.243V109.48h5.47q3.98 0 5.828 1.094 1.847 1.076 2.887 3.3 1.04 2.223 1.04 5.415 0 2.995-.95 5.2-.933 2.188-2.834 3.48-1.883 1.273-5.613 1.273h-5.827zm2.583-2.17h3.03q2.708 0 4.089-.79 1.38-.806 2.116-2.51.735-1.703.735-4.268 0-2.582-.681-4.429-.664-1.847-2.027-2.725-1.363-.88-4.303-.88h-2.96v15.602zM225.791 129.243V109.48h11.172v2.17h-8.59v6.24h7.496v1.973h-7.496v7.209h9.271v2.17h-11.853zM243.436 129.243h-2.582V109.48h6.115q2.26 0 3.389.646 1.13.646 1.793 1.883.664 1.237.664 2.672 0 1.147-.449 2.223-.448 1.058-1.255 1.92-.807.86-2.492 1.523.627.359.95.682.323.322.771 1.04.466.7.807 1.327l3.138 5.846h-2.94l-2.726-5.2q-1.005-1.884-2.583-3.3h-2.6v8.5zm0-10.473h2.51q1.579 0 2.404-.484t1.309-1.417q.484-.95.484-2.008 0-.932-.395-1.668-.376-.735-1.111-1.219-.736-.502-2.51-.502h-2.69v7.298z" style="line-height:125%;-inkscape-font-specification:'Apple Symbols, Normal';text-align:start"/></g></svg>